<?xml version="1.0" encoding="UTF-8" standalone="no"?>
<!-- Created with Inkscape (http://www.inkscape.org/) -->

<svg
   width="106.16mm"
   height="223.23999mm"
   viewBox="0 0 106.16 223.23999"
   version="1.1"
   id="svg1"
   inkscape:version="1.4 (e7c3feb100, 2024-10-09)"
   sodipodi:docname="group14_box_final_part1.svg"
   xmlns:inkscape="http://www.inkscape.org/namespaces/inkscape"
   xmlns:sodipodi="http://sodipodi.sourceforge.net/DTD/sodipodi-0.dtd"
   xmlns="http://www.w3.org/2000/svg"
   xmlns:svg="http://www.w3.org/2000/svg">
  <sodipodi:namedview
     id="namedview1"
     pagecolor="#ffffff"
     bordercolor="#000000"
     borderopacity="0.25"
     inkscape:showpageshadow="2"
     inkscape:pageopacity="0.0"
     inkscape:pagecheckerboard="0"
     inkscape:deskcolor="#d1d1d1"
     inkscape:document-units="mm"
     inkscape:zoom="0.72159091"
     inkscape:cx="167.68504"
     inkscape:cy="403.27559"
     inkscape:window-width="1920"
     inkscape:window-height="1013"
     inkscape:window-x="0"
     inkscape:window-y="0"
     inkscape:window-maximized="1"
     inkscape:current-layer="layer1" />
  <defs
     id="defs1" />
  <g
     inkscape:label="Layer 1"
     inkscape:groupmode="layer"
     id="layer1"
     transform="translate(-60.683333,-41.914583)">
    <path
       d="m 63.763333,265.14458 h 11 c 0.039,0 0.07,-0.031 0.07,-0.07 v -2.93 c 0,-0.07 -0.07,0 0,0 h 5.86 c 0.07,0 0,-0.07 0,0 v 2.93 c 0,0.039 0.031,0.07 0.07,0.07 h 6 c 0.039,0 0.07,-0.031 0.07,-0.07 v -2.93 c 0,-0.07 -0.07,0 0,0 h 5.86 c 0.07,0 0,-0.07 0,0 v 2.93 c 0,0.039 0.031,0.07 0.07,0.07 h 6 c 0.039,0 0.07,-0.031 0.07,-0.07 v -2.93 c 0,-0.07 -0.07,0 0,0 h 5.859997 c 0.07,0 0,-0.07 0,0 v 2.93 c 0,0.039 0.031,0.07 0.07,0.07 h 6 c 0.039,0 0.07,-0.031 0.07,-0.07 v -2.93 c 0,-0.07 -0.07,0 0,0 h 5.86 c 0.07,0 0,-0.07 0,0 v 2.93 c 0,0.039 0.031,0.07 0.07,0.07 h 6 c 0.039,0 0.07,-0.031 0.07,-0.07 v -2.93 c 0,-0.07 -0.07,0 0,0 h 5.86 c 0.07,0 0,-0.07 0,0 v 2.93 c 0,0.039 0.031,0.07 0.07,0.07 h 6 c 0.039,0 0.07,-0.031 0.07,-0.07 v -2.93 c 0,-0.07 -0.07,0 0,0 h 5.86 c 0.07,0 0,-0.07 0,0 v 2.93 c 0,0.039 0.031,0.07 0.07,0.07 h 6 c 0.039,0 0.07,-0.031 0.07,-0.07 v -2.93 c 0,-0.07 -0.07,0 0,0 h 5.86 c 0.07,0 0,-0.07 0,0 v 2.93 c 0,0.039 0.031,0.07 0.07,0.07 h 11 3 c 0.039,0 0.07,-0.031 0.07,-0.07 v -3 -6.65 c 0,-0.039 -0.031,-0.07 -0.07,-0.07 h -2.93 c -0.07,0 0,0.07 0,0 v -5.86 c 0,-0.07 -0.07,0 0,0 h 2.93 c 0.039,0 0.07,-0.031 0.07,-0.07 v -6 c 0,-0.039 -0.031,-0.07 -0.07,-0.07 h -2.93 c -0.07,0 0,0.07 0,0 v -5.86 c 0,-0.07 -0.07,0 0,0 h 2.93 c 0.039,0 0.07,-0.031 0.07,-0.07 v -6 c 0,-0.039 -0.031,-0.07 -0.07,-0.07 h -2.93 c -0.07,0 0,0.07 0,0 v -5.86 c 0,-0.07 -0.07,0 0,0 h 2.93 c 0.039,0 0.07,-0.031 0.07,-0.07 v -6 c 0,-0.039 -0.031,-0.07 -0.07,-0.07 h -2.93 c -0.07,0 0,0.07 0,0 v -5.86 c 0,-0.07 -0.07,0 0,0 h 2.93 c 0.039,0 0.07,-0.031 0.07,-0.07 v -6 c 0,-0.039 -0.031,-0.07 -0.07,-0.07 h -2.93 c -0.07,0 0,0.07 0,0 v -5.86 c 0,-0.07 -0.07,0 0,0 h 2.93 c 0.039,0 0.07,-0.031 0.07,-0.07 v -6 c 0,-0.039 -0.031,-0.07 -0.07,-0.07 h -2.93 c -0.07,0 0,0.07 0,0 v -5.86 c 0,-0.07 -0.07,0 0,0 h 2.93 c 0.039,0 0.07,-0.031 0.07,-0.07 v -6 c 0,-0.039 -0.031,-0.07 -0.07,-0.07 h -2.93 c -0.07,0 0,0.07 0,0 v -5.86 c 0,-0.07 -0.07,0 0,0 h 2.93 c 0.039,0 0.07,-0.031 0.07,-0.07 v -6 c 0,-0.039 -0.031,-0.07 -0.07,-0.07 h -2.93 c -0.07,0 0,0.07 0,0 v -5.86 c 0,-0.07 -0.07,0 0,0 h 2.93 c 0.039,0 0.07,-0.031 0.07,-0.07 v -6.65 -3 c 0,-0.039 -0.031,-0.07 -0.07,-0.07 h -3 -4.43 c -0.039,0 -0.07,0.031 -0.07,0.07 v 2.93 c 0,0.07 0.07,0 0,0 h -6.43 c -0.07,0 0,0.07 0,0 v -2.93 c 0,-0.039 -0.031,-0.07 -0.07,-0.07 h -6 c -0.039,0 -0.07,0.031 -0.07,0.07 v 2.93 c 0,0.07 0.07,0 0,0 h -5.86 c -0.07,0 0,0.07 0,0 v -2.93 c 0,-0.039 -0.031,-0.07 -0.07,-0.07 h -6 c -0.039,0 -0.07,0.031 -0.07,0.07 v 2.93 c 0,0.07 0.07,0 0,0 h -5.86 c -0.07,0 0,0.07 0,0 v -2.93 c 0,-0.039 -0.031,-0.07 -0.07,-0.07 h -6 c -0.039,0 -0.07,0.031 -0.07,0.07 v 2.93 c 0,0.07 0.07,0 0,0 h -5.86 c -0.07,0 0,0.07 0,0 v -2.93 c 0,-0.039 -0.031,-0.07 -0.07,-0.07 h -6 c -0.039,0 -0.07,0.031 -0.07,0.07 v 2.93 c 0,0.07 0.07,0 0,0 h -5.86 c -0.07,0 0,0.07 0,0 v -2.93 c 0,-0.039 -0.031,-0.07 -0.07,-0.07 h -5.999997 c -0.039,0 -0.07,0.031 -0.07,0.07 v 2.93 c 0,0.07 0.07,0 0,0 h -5.86 c -0.07,0 0,0.07 0,0 v -2.93 c 0,-0.039 -0.031,-0.07 -0.07,-0.07 h -6 c -0.039,0 -0.07,0.031 -0.07,0.07 v 2.93 c 0,0.07 0.07,0 0,0 h -5.86 c -0.07,0 0,0.07 0,0 v -2.93 c 0,-0.039 -0.031,-0.07 -0.07,-0.07 h -6 c -0.039,0 -0.07,0.031 -0.07,0.07 v 2.93 c 0,0.07 0.07,0 0,0 h -6.43 c -0.07,0 0,0.07 0,0 v -2.93 c 0,-0.039 -0.031,-0.07 -0.07,-0.07 h -4.43 -3 c -0.039,0 -0.07,0.031 -0.07,0.07 v 3 6.65 c 0,0.039 0.031,0.07 0.07,0.07 h 2.93 c 0.07,0 0,-0.07 0,0 v 5.86 c 0,0.07 0.07,0 0,0 h -2.93 c -0.039,0 -0.07,0.031 -0.07,0.07 v 6 c 0,0.039 0.031,0.07 0.07,0.07 h 2.93 c 0.07,0 0,-0.07 0,0 v 5.86 c 0,0.07 0.07,0 0,0 h -2.93 c -0.039,0 -0.07,0.031 -0.07,0.07 v 6 c 0,0.039 0.031,0.07 0.07,0.07 h 2.93 c 0.07,0 0,-0.07 0,0 v 5.86 c 0,0.07 0.07,0 0,0 h -2.93 c -0.039,0 -0.07,0.031 -0.07,0.07 v 6 c 0,0.039 0.031,0.07 0.07,0.07 h 2.93 c 0.07,0 0,-0.07 0,0 v 5.86 c 0,0.07 0.07,0 0,0 h -2.93 c -0.039,0 -0.07,0.031 -0.07,0.07 v 6 c 0,0.039 0.031,0.07 0.07,0.07 h 2.93 c 0.07,0 0,-0.07 0,0 v 5.86 c 0,0.07 0.07,0 0,0 h -2.93 c -0.039,0 -0.07,0.031 -0.07,0.07 v 6 c 0,0.039 0.031,0.07 0.07,0.07 h 2.93 c 0.07,0 0,-0.07 0,0 v 5.86 c 0,0.07 0.07,0 0,0 h -2.93 c -0.039,0 -0.07,0.031 -0.07,0.07 v 6 c 0,0.039 0.031,0.07 0.07,0.07 h 2.93 c 0.07,0 0,-0.07 0,0 v 5.86 c 0,0.07 0.07,0 0,0 h -2.93 c -0.039,0 -0.07,0.031 -0.07,0.07 v 6 c 0,0.039 0.031,0.07 0.07,0.07 h 2.93 c 0.07,0 0,-0.07 0,0 v 5.86 c 0,0.07 0.07,0 0,0 h -2.93 c -0.039,0 -0.07,0.031 -0.07,0.07 v 6.65 3 c 0,0.039 0.031,0.07 0.07,0.07 h 3"
       stroke="#000000"
       stroke-width="0.14"
       id="path45"
       style="fill:none;stroke:#000000;stroke-width:0.02;stroke-linecap:round;stroke-linejoin:round;stroke-dasharray:none;stroke-opacity:1" />
    <path
       d="m 63.763333,154.20458 h 11 c 0.039,0 0.07,-0.031 0.07,-0.07 v -2.93 c 0,-0.07 -0.07,0 0,0 h 5.86 c 0.07,0 0,-0.07 0,0 v 2.93 c 0,0.039 0.031,0.07 0.07,0.07 h 6 c 0.039,0 0.07,-0.031 0.07,-0.07 v -2.93 c 0,-0.07 -0.07,0 0,0 h 5.86 c 0.07,0 0,-0.07 0,0 v 2.93 c 0,0.039 0.031,0.07 0.07,0.07 h 6 c 0.039,0 0.07,-0.031 0.07,-0.07 v -2.93 c 0,-0.07 -0.07,0 0,0 h 5.859997 c 0.07,0 0,-0.07 0,0 v 2.93 c 0,0.039 0.031,0.07 0.07,0.07 h 6 c 0.039,0 0.07,-0.031 0.07,-0.07 v -2.93 c 0,-0.07 -0.07,0 0,0 h 5.86 c 0.07,0 0,-0.07 0,0 v 2.93 c 0,0.039 0.031,0.07 0.07,0.07 h 6 c 0.039,0 0.07,-0.031 0.07,-0.07 v -2.93 c 0,-0.07 -0.07,0 0,0 h 5.86 c 0.07,0 0,-0.07 0,0 v 2.93 c 0,0.039 0.031,0.07 0.07,0.07 h 6 c 0.039,0 0.07,-0.031 0.07,-0.07 v -2.93 c 0,-0.07 -0.07,0 0,0 h 5.86 c 0.07,0 0,-0.07 0,0 v 2.93 c 0,0.039 0.031,0.07 0.07,0.07 h 6 c 0.039,0 0.07,-0.031 0.07,-0.07 v -2.93 c 0,-0.07 -0.07,0 0,0 h 5.86 c 0.07,0 0,-0.07 0,0 v 2.93 c 0,0.039 0.031,0.07 0.07,0.07 h 11 3 c 0.039,0 0.07,-0.031 0.07,-0.07 v -3 -11 c 0,-0.039 -0.031,-0.07 -0.07,-0.07 h -2.93 c -0.07,0 0,0.07 0,0 v -5.86 c 0,-0.07 -0.07,0 0,0 h 2.93 c 0.039,0 0.07,-0.031 0.07,-0.07 v -6 c 0,-0.039 -0.031,-0.07 -0.07,-0.07 h -2.93 c -0.07,0 0,0.07 0,0 v -5.86 c 0,-0.07 -0.07,0 0,0 h 2.93 c 0.039,0 0.07,-0.031 0.07,-0.07 v -6 c 0,-0.039 -0.031,-0.07 -0.07,-0.07 h -2.93 c -0.07,0 0,0.07 0,0 v -5.86 c 0,-0.07 -0.07,0 0,0 h 2.93 c 0.039,0 0.07,-0.031 0.07,-0.07 v -6 c 0,-0.039 -0.031,-0.07 -0.07,-0.07 h -2.93 c -0.07,0 0,0.07 0,0 v -5.859997 c 0,-0.07 -0.07,0 0,0 h 2.93 c 0.039,0 0.07,-0.031 0.07,-0.07 v -6 c 0,-0.039 -0.031,-0.07 -0.07,-0.07 h -2.93 c -0.07,0 0,0.07 0,0 v -5.86 c 0,-0.07 -0.07,0 0,0 h 2.93 c 0.039,0 0.07,-0.031 0.07,-0.07 v -6 c 0,-0.039 -0.031,-0.07 -0.07,-0.07 h -2.93 c -0.07,0 0,0.07 0,0 v -5.86 c 0,-0.07 -0.07,0 0,0 h 2.93 c 0.039,0 0.07,-0.031 0.07,-0.07 v -6 c 0,-0.039 -0.031,-0.07 -0.07,-0.07 h -2.93 c -0.07,0 0,0.07 0,0 v -5.86 c 0,-0.07 -0.07,0 0,0 h 2.93 c 0.039,0 0.07,-0.031 0.07,-0.07 v -11 c 0,-0.039 -0.031,-0.07 -0.07,-0.07 h -3 -99.999997 -3 c -0.039,0 -0.07,0.031 -0.07,0.07 v 11 c 0,0.039 0.031,0.07 0.07,0.07 h 2.93 c 0.07,0 0,-0.07 0,0 v 5.86 c 0,0.07 0.07,0 0,0 h -2.93 c -0.039,0 -0.07,0.031 -0.07,0.07 v 6 c 0,0.039 0.031,0.07 0.07,0.07 h 2.93 c 0.07,0 0,-0.07 0,0 v 5.86 c 0,0.07 0.07,0 0,0 h -2.93 c -0.039,0 -0.07,0.031 -0.07,0.07 v 6 c 0,0.039 0.031,0.07 0.07,0.07 h 2.93 c 0.07,0 0,-0.07 0,0 v 5.86 c 0,0.07 0.07,0 0,0 h -2.93 c -0.039,0 -0.07,0.031 -0.07,0.07 v 6 c 0,0.039 0.031,0.07 0.07,0.07 h 2.93 c 0.07,0 0,-0.07 0,0 v 5.859997 c 0,0.07 0.07,0 0,0 h -2.93 c -0.039,0 -0.07,0.031 -0.07,0.07 v 6 c 0,0.039 0.031,0.07 0.07,0.07 h 2.93 c 0.07,0 0,-0.07 0,0 v 5.86 c 0,0.07 0.07,0 0,0 h -2.93 c -0.039,0 -0.07,0.031 -0.07,0.07 v 6 c 0,0.039 0.031,0.07 0.07,0.07 h 2.93 c 0.07,0 0,-0.07 0,0 v 5.86 c 0,0.07 0.07,0 0,0 h -2.93 c -0.039,0 -0.07,0.031 -0.07,0.07 v 6 c 0,0.039 0.031,0.07 0.07,0.07 h 2.93 c 0.07,0 0,-0.07 0,0 v 5.86 c 0,0.07 0.07,0 0,0 h -2.93 c -0.039,0 -0.07,0.031 -0.07,0.07 v 11 3 c 0,0.039 0.031,0.07 0.07,0.07 h 3"
       stroke="#000000"
       stroke-width="0.14"
       id="path46"
       style="fill:none;stroke:#000000;stroke-width:0.02;stroke-linecap:round;stroke-linejoin:round;stroke-dasharray:none;stroke-opacity:1" />
    <path
       d="m 60.763333,49.564583 h 6.57 c 0.039,0 0.07,-0.031 0.07,-0.07 v -2.93 c 0,-0.07 -0.07,0 0,0 h 5.86 c 0.07,0 0,-0.07 0,0 v 2.93 c 0,0.039 0.031,0.07 0.07,0.07 h 6 c 0.039,0 0.07,-0.031 0.07,-0.07 v -2.93 c 0,-0.07 -0.07,0 0,0 h 5.86 c 0.07,0 0,-0.07 0,0 v 2.93 c 0,0.039 0.031,0.07 0.07,0.07 h 6 c 0.039,0 0.07,-0.031 0.07,-0.07 v -2.93 c 0,-0.07 -0.07,0 0,0 h 5.86 c 0.07,0 0,-0.07 0,0 v 2.93 c 0,0.039 0.031,0.07 0.07,0.07 h 5.999997 c 0.039,0 0.07,-0.031 0.07,-0.07 v -2.93 c 0,-0.07 -0.07,0 0,0 h 5.86 c 0.07,0 0,-0.07 0,0 v 2.93 c 0,0.039 0.031,0.07 0.07,0.07 h 6 c 0.039,0 0.07,-0.031 0.07,-0.07 v -2.93 c 0,-0.07 -0.07,0 0,0 h 5.86 c 0.07,0 0,-0.07 0,0 v 2.93 c 0,0.039 0.031,0.07 0.07,0.07 h 6 c 0.039,0 0.07,-0.031 0.07,-0.07 v -2.93 c 0,-0.07 -0.07,0 0,0 h 5.86 c 0.07,0 0,-0.07 0,0 v 2.93 c 0,0.039 0.031,0.07 0.07,0.07 h 6 c 0.039,0 0.07,-0.031 0.07,-0.07 v -2.93 c 0,-0.07 -0.07,0 0,0 h 5.86 c 0.07,0 0,-0.07 0,0 v 2.93 c 0,0.039 0.031,0.07 0.07,0.07 h 6.57 c 0.039,0 0.07,-0.031 0.07,-0.07 v -3 -4.5 c 0,-0.039 -0.031,-0.07 -0.07,-0.07 H 60.763333 c -0.039,0 -0.07,0.031 -0.07,0.07 v 4.5 3 c 0,0.039 0.031,0.07 0.07,0.07"
       stroke="#000000"
       stroke-width="0.14"
       id="path47"
       style="fill:none;stroke:#000000;stroke-width:0.02;stroke-linecap:round;stroke-linejoin:round;stroke-dasharray:none;stroke-opacity:1" />
  </g>
</svg>
